<?xml version="1.0" standalone="no"?>
<!DOCTYPE svg PUBLIC "-//W3C//DTD SVG 20010904//EN"
 "http://www.w3.org/TR/2001/REC-SVG-20010904/DTD/svg10.dtd">
<svg version="1.0" xmlns="http://www.w3.org/2000/svg"
 width="100.000000pt" height="100.000000pt" viewBox="0 0 100.000000 100.000000"
 preserveAspectRatio="xMidYMid meet">

<g transform="translate(0.000000,100.000000) scale(0.100000,-0.100000)"
fill="#000000" stroke="none">
<path d="M269 783 c-11 -15 -11 -16 1 -5 21 18 47 15 63 -8 8 -11 17 -17 20
-13 9 9 -33 43 -53 43 -10 0 -24 -8 -31 -17z"/>
<path d="M465 754 c-27 -35 -29 -36 -41 -18 -23 33 -34 44 -47 44 -6 0 -1 -7
11 -16 12 -8 22 -21 22 -29 0 -7 5 -15 12 -17 16 -6 -20 -58 -41 -59 -9 0 -11
-3 -4 -5 8 -4 3 -20 -17 -52 -34 -57 -60 -132 -60 -175 0 -44 45 -132 79 -157
16 -10 49 -25 75 -32 31 -8 46 -17 46 -29 0 -35 34 -50 106 -46 l69 3 -71 2
c-80 2 -100 15 -90 57 4 15 16 27 30 31 14 3 27 13 30 21 4 10 14 13 31 9 20
-5 25 -3 25 14 0 11 11 27 25 36 23 15 27 15 50 0 14 -9 25 -20 25 -25 0 -4
17 -8 37 -7 28 1 39 -4 48 -20 5 -11 18 -28 28 -38 20 -20 22 -47 5 -64 -7 -7
-44 -13 -83 -14 l-70 -2 69 -3 c54 -3 72 0 87 13 24 22 24 49 0 73 -10 10 -22
28 -26 40 -6 21 -40 35 -66 29 -8 -2 -27 7 -41 18 -25 19 -27 26 -22 70 7 60
-17 135 -71 220 -48 76 -115 164 -125 164 -4 0 -20 -16 -35 -36z m-51 -237
c-8 -75 9 -166 37 -201 34 -44 -5 -32 -52 15 -41 41 -41 42 -36 99 4 53 38
150 52 150 3 0 3 -28 -1 -63z"/>
<path d="M223 753 c-7 -2 -13 -9 -13 -15 0 -6 6 -6 15 2 8 6 19 9 25 5 5 -3
10 -1 10 4 0 11 -16 13 -37 4z"/>
<path d="M170 715 c-6 -8 -10 -20 -7 -27 4 -8 6 -7 6 4 1 9 9 22 19 27 9 6 12
11 6 11 -6 0 -17 -7 -24 -15z"/>
<path d="M182 659 c7 -5 36 -8 63 -8 60 1 50 6 -23 12 -32 2 -48 1 -40 -4z"/>
</g>
</svg>
